<svg width="20" height="21" viewBox="0 0 20 21" fill="none" xmlns="http://www.w3.org/2000/svg">
<path d="M15.0781 9.23438C15.5096 9.23438 15.8594 8.8846 15.8594 8.45312C15.8594 8.02165 15.5096 7.67188 15.0781 7.67188C14.6467 7.67188 14.2969 8.02165 14.2969 8.45312C14.2969 8.8846 14.6467 9.23438 15.0781 9.23438Z" fill="#5736C5"/>
<path d="M16.875 1.8125H15.8594V1.03125C15.8594 0.599766 15.5096 0.25 15.0781 0.25C14.6466 0.25 14.2969 0.599766 14.2969 1.03125V1.8125H10.7422V1.03125C10.7422 0.599766 10.3924 0.25 9.96094 0.25C9.52945 0.25 9.17969 0.599766 9.17969 1.03125V1.8125H5.66406V1.03125C5.66406 0.599766 5.3143 0.25 4.88281 0.25C4.45133 0.25 4.10156 0.599766 4.10156 1.03125V1.8125H3.125C1.40188 1.8125 0 3.21438 0 4.9375V17.125C0 18.8481 1.40188 20.25 3.125 20.25H9.10156C9.53305 20.25 9.88281 19.9002 9.88281 19.4688C9.88281 19.0373 9.53305 18.6875 9.10156 18.6875H3.125C2.26344 18.6875 1.5625 17.9866 1.5625 17.125V4.9375C1.5625 4.07594 2.26344 3.375 3.125 3.375H4.10156V4.15625C4.10156 4.58773 4.45133 4.9375 4.88281 4.9375C5.3143 4.9375 5.66406 4.58773 5.66406 4.15625V3.375H9.17969V4.15625C9.17969 4.58773 9.52945 4.9375 9.96094 4.9375C10.3924 4.9375 10.7422 4.58773 10.7422 4.15625V3.375H14.2969V4.15625C14.2969 4.58773 14.6466 4.9375 15.0781 4.9375C15.5096 4.9375 15.8594 4.58773 15.8594 4.15625V3.375H16.875C17.7366 3.375 18.4375 4.07594 18.4375 4.9375V9.39062C18.4375 9.82211 18.7873 10.1719 19.2188 10.1719C19.6502 10.1719 20 9.82211 20 9.39062V4.9375C20 3.21438 18.5981 1.8125 16.875 1.8125Z" fill="#5736C5"/>
<path d="M15.2734 10.7969C12.6672 10.7969 10.5469 12.9172 10.5469 15.5234C10.5469 18.1297 12.6672 20.25 15.2734 20.25C17.8797 20.25 20 18.1297 20 15.5234C20 12.9172 17.8797 10.7969 15.2734 10.7969ZM15.2734 18.6875C13.5288 18.6875 12.1094 17.2681 12.1094 15.5234C12.1094 13.7787 13.5288 12.3594 15.2734 12.3594C17.0181 12.3594 18.4375 13.7787 18.4375 15.5234C18.4375 17.2681 17.0181 18.6875 15.2734 18.6875Z" fill="#5736C5"/>
<path d="M16.4062 14.7422H16.0547V13.9219C16.0547 13.4904 15.7049 13.1406 15.2734 13.1406C14.842 13.1406 14.4922 13.4904 14.4922 13.9219V15.5234C14.4922 15.9549 14.842 16.3047 15.2734 16.3047H16.4062C16.8377 16.3047 17.1875 15.9549 17.1875 15.5234C17.1875 15.092 16.8377 14.7422 16.4062 14.7422Z" fill="#5736C5"/>
<path d="M11.6797 9.23438C12.1112 9.23438 12.4609 8.8846 12.4609 8.45312C12.4609 8.02165 12.1112 7.67188 11.6797 7.67188C11.2482 7.67188 10.8984 8.02165 10.8984 8.45312C10.8984 8.8846 11.2482 9.23438 11.6797 9.23438Z" fill="#5736C5"/>
<path d="M8.28125 12.6328C8.71272 12.6328 9.0625 12.283 9.0625 11.8516C9.0625 11.4201 8.71272 11.0703 8.28125 11.0703C7.84978 11.0703 7.5 11.4201 7.5 11.8516C7.5 12.283 7.84978 12.6328 8.28125 12.6328Z" fill="#5736C5"/>
<path d="M4.88281 9.23438C5.31428 9.23438 5.66406 8.8846 5.66406 8.45312C5.66406 8.02165 5.31428 7.67188 4.88281 7.67188C4.45134 7.67188 4.10156 8.02165 4.10156 8.45312C4.10156 8.8846 4.45134 9.23438 4.88281 9.23438Z" fill="#5736C5"/>
<path d="M4.88281 12.6328C5.31428 12.6328 5.66406 12.283 5.66406 11.8516C5.66406 11.4201 5.31428 11.0703 4.88281 11.0703C4.45134 11.0703 4.10156 11.4201 4.10156 11.8516C4.10156 12.283 4.45134 12.6328 4.88281 12.6328Z" fill="#5736C5"/>
<path d="M4.88281 16.0312C5.31428 16.0312 5.66406 15.6815 5.66406 15.25C5.66406 14.8185 5.31428 14.4688 4.88281 14.4688C4.45134 14.4688 4.10156 14.8185 4.10156 15.25C4.10156 15.6815 4.45134 16.0312 4.88281 16.0312Z" fill="#5736C5"/>
<path d="M8.28125 16.0312C8.71272 16.0312 9.0625 15.6815 9.0625 15.25C9.0625 14.8185 8.71272 14.4688 8.28125 14.4688C7.84978 14.4688 7.5 14.8185 7.5 15.25C7.5 15.6815 7.84978 16.0312 8.28125 16.0312Z" fill="#5736C5"/>
<path d="M8.28125 9.23438C8.71272 9.23438 9.0625 8.8846 9.0625 8.45312C9.0625 8.02165 8.71272 7.67188 8.28125 7.67188C7.84978 7.67188 7.5 8.02165 7.5 8.45312C7.5 8.8846 7.84978 9.23438 8.28125 9.23438Z" fill="#5736C5"/>
</svg>
